# xmcd
#
# Track frame offsets: 
#        150
#        9861
#        20906
#        30887
#        42342
#        57422
#        69105
#        81508
#        92296
#        103138
#        113982
#        123840
#        132070
#        144139
#        156858
#        167116
#        178208
#        189685
#        202508
#        213574
#        224069
#        233844
#        246115
#        257450
#        268204
#
# Disc length: 3734 seconds
#
# Revision: 2
# Processed by: cddbd v1.5.2PL0 Copyright (c) Steve Scherf et al.
# Submitted via: ExactAudioCopy v1.1
#
DISCID=5a0e9419
DTITLE=Ted Taylor - The Ever Wonderful: Okeh Uptown Soul 1962-1966
DYEAR=2006
DGENRE=R&B
TTITLE0=Don't Lie (stereo)
TTITLE1=Pretending Love (stereo)
TTITLE2=Time Has A Way (mono)
TTITLE3=You Must Have Been Meant For Me (stereo)
TTITLE4=I'll Release You (stereo)
TTITLE5=Can't Take No More (stereo)
TTITLE6=Be Ever Wonderful (stereo)
TTITLE7=That's Life I Guess (stereo)
TTITLE8=You Give Me Nothing To Go On (mono)
TTITLE9=Him Instead Of Me (stereo)
TTITLE10=I'll Make It Up To You (mono)
TTITLE11=It Ain't Like That No More (stereo)
TTITLE12=So Hard (mono)
TTITLE13=Need You Home (stereo)
TTITLE14=Somebody's Always Trying (mono)
TTITLE15=Top Of The World (mono)
TTITLE16=If It Wasn't For You (mono)
TTITLE17=Don't Deceive Me (Please Don't Go) (stereo)
TTITLE18=I Love You, Yes I Do (stereo)
TTITLE19=I'm So Satisfied (mono)
TTITLE20=(Love Is Like A) Rambling Rose (stereo)
TTITLE21=Stay Away From My Baby (stereo)
TTITLE22=Walking Out Of Your Life (mono)
TTITLE23=Daddy's Baby (mono)
TTITLE24=Mercy Have Pity (mono)
EXTD=
EXTT0=
EXTT1=
EXTT2=
EXTT3=
EXTT4=
EXTT5=
EXTT6=
EXTT7=
EXTT8=
EXTT9=
EXTT10=
EXTT11=
EXTT12=
EXTT13=
EXTT14=
EXTT15=
EXTT16=
EXTT17=
EXTT18=
EXTT19=
EXTT20=
EXTT21=
EXTT22=
EXTT23=
EXTT24=
PLAYORDER=
